<svg width="209" height="388" viewBox="0 0 209 388" fill="none" xmlns="http://www.w3.org/2000/svg">
<path d="M16.5729 385.539C9.08996 383.518 -0.0167481 375.112 1.9329 363.558C2.89983 357.827 6.61101 354.118 10.4591 351.719C15.7817 348.401 21.8436 347.151 27.6854 346.835C34.4235 346.471 41.1541 347.39 47.8418 348.361C54.4441 349.32 61.0468 350.179 67.6785 350.703C93.6286 352.739 119.737 350.8 145.102 344.954C151.362 343.509 157.585 341.814 163.77 339.869C169.632 338.144 175.362 336.002 180.918 333.46C188.272 329.929 200.231 323.059 199.256 310.335C198.739 303.588 194.766 298.2 190.758 294.446C185.913 289.907 180.306 286.92 174.815 284.02C149.272 270.53 123.679 257.201 98.1113 243.792C92.1441 240.663 86.1372 237.617 80.3459 233.95C74.9239 230.516 69.5273 226.528 65.1639 221.013C61.3528 216.197 57.9473 209.731 58.0674 202.502C58.167 196.508 60.8949 191.421 64.2357 187.619C72.5071 178.207 84.2077 174.39 94.7827 172.391C107.921 169.908 121.25 169.921 134.396 167.522C145.012 165.586 156.354 161.848 164.987 153.088C168.639 149.525 171.223 145.012 172.445 140.058C173.547 134.87 173.011 129.467 170.911 124.596C168.573 119.01 164.842 114.56 160.92 110.916C156.414 106.789 151.304 103.375 145.766 100.792C134.106 95.2351 121.845 92.342 109.901 88.0779C104.044 85.9866 98.127 83.6934 92.688 80.1014C88.08 77.0582 83.0604 72.9562 80.4968 66.8562C75.2073 54.2705 87.8261 46.7696 94.9763 43.9283C99.8363 42.085 104.842 40.6519 109.941 39.6441C111.019 39.4126 110.562 37.2604 109.489 37.4907C104.121 38.5372 98.8611 40.0733 93.7739 42.0796C89.4621 43.8712 85.0132 46.2256 81.6264 50.2771C80.0844 52.1064 78.9442 54.2395 78.28 56.538C77.6158 58.8365 77.4424 61.2489 77.771 63.6188C78.668 69.6575 82.5676 74.3106 86.23 77.6809C91.073 82.1377 96.595 85.0483 102.194 87.4209C108.09 89.9197 114.112 91.8671 120.131 93.7773C132.16 97.5943 144.728 100.996 155.586 109.118C163.182 114.8 173.5 125.453 170.974 138.658C169.852 144.519 166.446 149.102 162.771 152.473C158.454 156.315 153.477 159.341 148.08 161.406C124.018 171.09 97.5358 164.164 74.0937 177.318C66.1233 181.79 56.4421 189.932 56.3641 202.743C56.3237 209.399 58.9913 215.502 62.2892 220.327C66.2392 226.105 71.3542 230.378 76.5585 233.95C82.0382 237.572 87.7281 240.867 93.5981 243.816C100.011 247.184 106.424 250.548 112.84 253.907L151.771 274.324L171.114 284.468C177.018 287.564 183.073 290.534 188.441 295.079C192.836 298.8 198.029 304.905 197.58 312.486C197.224 318.506 193.225 322.851 189.57 325.756C184.838 329.517 179.522 331.95 174.233 333.971C168.133 336.303 161.932 338.237 155.719 339.976C142.993 343.534 130.004 346.076 116.876 347.58C103.781 349.088 90.5877 349.579 77.4162 349.051C70.761 348.783 64.1162 348.25 57.4818 347.453C50.6431 346.63 43.8336 345.361 36.9773 344.798C30.7756 344.289 24.5142 344.407 18.4067 346.043C13.3071 347.41 7.91959 349.846 4.04858 354.599C1.19539 358.228 -0.233375 362.774 0.0311145 367.383C0.293196 371.982 1.93289 376.396 4.73699 380.051C7.58525 383.784 11.5873 386.47 16.1206 387.693C17.1896 387.982 17.6467 385.83 16.573 385.54L16.5729 385.539Z" fill="#E6E6E6"/>
<path d="M208.912 386.559H14.4877V387.903H208.912V386.559Z" fill="#3F3D56"/>
<path d="M193.935 323.222C200.949 323.222 206.636 317.536 206.636 310.521C206.636 303.506 200.949 297.819 193.935 297.819C186.92 297.819 181.234 303.506 181.234 310.521C181.234 317.536 186.92 323.222 193.935 323.222Z" fill="#E6E6E6"/>
<path d="M62.1601 208.402C69.1748 208.402 74.8613 202.715 74.8613 195.7C74.8613 188.685 69.1748 182.999 62.1601 182.999C55.1454 182.999 49.4589 188.685 49.4589 195.7C49.4589 202.715 55.1454 208.402 62.1601 208.402Z" fill="#E6E6E6"/>
<path d="M85.8008 336.104C85.8008 336.104 74.8217 350.98 72.3426 353.459C69.8635 355.938 69.1551 365.147 69.1551 365.147L73.4051 375.064L70.9259 380.022L51.8011 360.897L72.3426 330.437L85.8008 336.104Z" fill="#FFB8B8"/>
<path d="M132.55 245.08C132.55 245.08 92.8106 366.177 88.5607 369.01C84.3107 371.844 63.3807 354.059 57.3599 349.809C51.3391 345.559 102.801 264.704 102.801 264.704C94.6556 238.141 98.5506 231.976 98.5506 231.976L132.55 245.08Z" fill="#2F2E41"/>
<path d="M70.2176 377.189C70.2176 377.189 70.2176 372.939 71.5855 370.818C72.9533 368.697 75.5301 378.251 75.5301 378.251C75.5301 378.251 91.1132 382.501 84.03 387.106C76.9467 391.71 56.0511 377.189 50.0304 373.293C44.0096 369.397 46.1346 364.793 49.322 361.605L55.5199 355.407L70.2176 377.189Z" fill="#2F2E41"/>
<path d="M145.3 343.896C145.3 343.896 148.488 353.105 151.321 361.959C154.154 370.814 167.612 375.418 167.612 375.418L170.092 381.793L162.654 385.335L141.05 380.022C141.05 380.022 141.758 372.939 141.758 370.459C141.758 367.98 130.425 347.084 130.425 347.084L145.3 343.896Z" fill="#FFB8B8"/>
<path d="M117.321 139.181C125.536 139.181 132.196 132.521 132.196 124.305C132.196 116.09 125.536 109.43 117.321 109.43C109.106 109.43 102.446 116.09 102.446 124.305C102.446 132.521 109.106 139.181 117.321 139.181Z" fill="#FFB8B8"/>
<path d="M109.175 132.097C109.175 134.222 98.5506 150.515 98.5506 150.515L114.115 157.462L121.217 137.056L109.175 132.097Z" fill="#FFB8B8"/>
<path d="M123.342 209.662C126.264 209.647 129.076 210.779 131.173 212.814C133.271 214.849 134.487 217.625 134.561 220.546L135.029 239.059L137.509 243.309C137.509 243.309 152.762 357.068 152.762 360.61C152.762 364.151 137.616 373.919 128.762 373.21C124.382 372.86 114.561 332.618 110.664 310.586C107.89 294.901 105.183 277.832 102.465 265.232C101.557 260.688 100.368 256.206 98.9048 251.809C91.1132 230.205 104.571 209.662 104.571 209.662H123.342V209.662Z" fill="#2F2E41"/>
<path d="M164.602 380.199C164.602 380.199 166.55 380.731 164.425 380.022C162.3 379.314 163.008 375.418 163.096 373.438C163.183 371.458 183.904 377.897 183.904 382.856C183.904 387.814 157.342 387.814 149.55 387.106C141.758 386.397 139.988 387.106 138.925 382.147C137.863 377.189 141.936 370.282 141.936 370.282L164.602 380.199Z" fill="#2F2E41"/>
<path d="M105.978 219.533C108.748 219.533 114.704 212.419 117.822 215.537C120.09 217.804 122.014 219.982 123.711 221.904C128.584 227.421 132.844 232.477 135.804 228.849C136.252 228.301 134.747 229.567 136.002 228.714C136.522 228.359 136.919 227.852 137.138 227.262C137.358 226.672 137.388 226.028 137.225 225.42C132.93 211.963 130.255 199.07 133.671 188.302C133.924 187.447 134.045 186.558 134.03 185.667C134.03 185.536 134.036 185.406 134.048 185.275C134.228 183.288 134.183 176.171 126.029 168.016C118.576 160.563 117.146 155.983 116.958 153.917C116.913 153.435 104.9 140.97 104.9 140.97C104.271 140.706 103.571 140.663 102.914 140.847C102.257 141.032 101.682 141.433 101.283 141.986L97.4345 147.277C93.2515 155.56 91.4258 164.833 92.157 174.083C93.1988 186.09 95.0076 209.834 96.4932 218.399C96.6164 219.18 97.0303 219.885 97.6518 220.373C98.08 220.704 98.5905 220.913 99.1285 220.977C99.6665 221.041 100.212 220.957 100.706 220.734C102.358 219.965 104.155 219.556 105.978 219.533V219.533Z" fill="#A4E2FF"/>
<path d="M120.891 124.873L118.221 122.051C118.443 136.911 132.462 145.202 132.462 145.202L101.161 142.082L100.37 138.14L98.7348 141.386L94.9132 140.418L93.8137 138.014L91.4554 139.298L96.2945 120.189C101.074 101.96 115.647 104.634 115.647 104.634C136.051 98.2516 133.55 117.714 133.55 117.714L120.891 124.873Z" fill="#2F2E41"/>
<path opacity="0.2" d="M108.97 315.405L103.293 265.196L110.273 311.705L108.97 315.405Z" fill="black"/>
<path d="M98.866 112.696C103.213 112.696 106.737 109.172 106.737 104.825C106.737 100.478 103.213 96.9536 98.866 96.9536C94.5192 96.9536 90.9954 100.478 90.9954 104.825C90.9954 109.172 94.5192 112.696 98.866 112.696Z" fill="#2F2E41"/>
<path d="M100.116 111.201C100.28 111.201 100.443 111.205 100.608 111.194L100.625 111.193C102.707 111.056 104.65 110.098 106.026 108.529C107.401 106.959 108.098 104.908 107.962 102.826C107.826 100.743 106.868 98.8003 105.3 97.4236C103.732 96.047 101.681 95.3495 99.5984 95.4846C99.4327 95.4953 99.2717 95.5203 99.1091 95.5409C101.11 95.5352 103.039 96.2931 104.5 97.6601C105.962 99.0271 106.848 100.9 106.976 102.898C107.104 104.895 106.466 106.866 105.191 108.409C103.917 109.952 102.101 110.95 100.116 111.201V111.201Z" fill="#2F2E41"/>
<path d="M118.543 128.929C119.901 128.929 121.002 127.388 121.002 125.486C121.002 123.584 119.901 122.042 118.543 122.042C117.184 122.042 116.083 123.584 116.083 125.486C116.083 127.388 117.184 128.929 118.543 128.929Z" fill="#FFB8B8"/>
<path d="M148 239.687L158.111 246.843C158.991 247.466 159.719 248.28 160.239 249.224C160.76 250.169 161.06 251.219 161.117 252.295C161.174 253.372 160.986 254.448 160.568 255.442C160.149 256.436 159.512 257.322 158.702 258.034C157.922 258.72 157.002 259.228 156.006 259.521C155.01 259.815 153.962 259.888 152.935 259.735C151.907 259.582 150.926 259.207 150.059 258.636C149.191 258.065 148.459 257.311 147.913 256.428L142.062 246.967L121.471 215.849L130.003 209.571L148 239.687Z" fill="#FEB8B8"/>
<path opacity="0.2" d="M131.762 211.799C131.802 217.314 126.352 222.103 118.654 222.796L100.995 185.272C99.141 181.334 98.4468 176.949 98.9929 172.631C99.5391 168.312 101.303 164.239 104.079 160.886V160.886L121.905 182.551C122.459 191.969 126.477 201.731 131.762 211.799Z" fill="black"/>
<path d="M131.762 209.399C131.802 214.914 128.752 218.503 121.054 219.196L103.395 181.672C101.541 177.734 100.847 173.349 101.393 169.031C101.939 164.712 103.703 160.638 106.479 157.286V157.286L124.306 178.95C124.859 188.369 126.477 199.33 131.762 209.399Z" fill="#A4E2FF"/>
<path d="M142.047 0.52914L106.78 15.8612C105.222 16.5405 103.997 17.8099 103.375 19.3909C102.752 20.9719 102.781 22.7355 103.457 24.2947L114.408 49.4865C115.087 51.0442 116.356 52.2688 117.937 52.8917C119.518 53.5146 121.282 53.485 122.841 52.8092L158.108 37.4772C159.666 36.7979 160.89 35.5285 161.513 33.9475C162.136 32.3665 162.106 30.6029 161.431 29.0437L150.48 3.85188C149.8 2.29421 148.531 1.06958 146.95 0.446664C145.369 -0.176255 143.606 -0.146592 142.047 0.52914V0.52914ZM143.507 3.88805C143.718 3.79735 143.939 3.73356 144.166 3.69821L132.243 26.1951L107.753 19.4932C107.906 19.3859 108.069 19.2944 108.24 19.2201L143.507 3.88805ZM156.648 34.1182L121.381 49.4503C120.713 49.7399 119.957 49.7526 119.279 49.4856C118.602 49.2187 118.058 48.6938 117.767 48.0263L106.914 23.0607L132.691 30.115C133.092 30.2248 133.519 30.1946 133.901 30.0295C134.283 29.8643 134.597 29.5739 134.792 29.2062L147.272 5.65903L158.072 30.5039C158.361 31.1721 158.374 31.9279 158.107 32.6055C157.84 33.2831 157.315 33.8271 156.648 34.1182H156.648Z" fill="#E6E6E6"/>
</svg>
