<svg id="Capa_1" enable-background="new 0 0 512 512" height="512" viewBox="0 0 512 512" width="512" xmlns="http://www.w3.org/2000/svg"><g><g><path d="m124.878 362.887c-4.268 0-7.726-3.459-7.726-7.726v-33.301c0-4.268 3.459-7.726 7.726-7.726s7.726 3.459 7.726 7.726v33.301c.001 4.268-3.458 7.726-7.726 7.726z" fill="#30579d"/></g><g><path d="m20.813 362.887c-4.268 0-7.726-3.459-7.726-7.726v-33.301c0-4.268 3.459-7.726 7.726-7.726s7.726 3.459 7.726 7.726v33.301c0 4.268-3.459 7.726-7.726 7.726z" fill="#30579d"/></g><g><path d="m308.032 362.887c-4.268 0-7.726-3.459-7.726-7.726v-33.301c0-4.268 3.459-7.726 7.726-7.726s7.726 3.459 7.726 7.726v33.301c.001 4.268-3.458 7.726-7.726 7.726z" fill="#30579d"/></g><g><path d="m203.968 362.887c-4.268 0-7.726-3.459-7.726-7.726v-33.301c0-4.268 3.459-7.726 7.726-7.726 4.268 0 7.726 3.459 7.726 7.726v33.301c0 4.268-3.459 7.726-7.726 7.726z" fill="#30579d"/></g><g><path d="m491.187 362.887c-4.268 0-7.726-3.459-7.726-7.726v-33.301c0-4.268 3.459-7.726 7.726-7.726s7.726 3.459 7.726 7.726v33.301c.001 4.268-3.458 7.726-7.726 7.726z" fill="#30579d"/></g><g><path d="m387.122 362.887c-4.268 0-7.726-3.459-7.726-7.726v-33.301c0-4.268 3.459-7.726 7.726-7.726s7.726 3.459 7.726 7.726v33.301c0 4.268-3.459 7.726-7.726 7.726z" fill="#30579d"/></g><g><g><path d="m239.35 455.064h33.301v33.301h-33.301z" fill="#21386b"/></g><g><path d="m376.715 321.861h124.878c5.747 0 10.407-4.659 10.407-10.406v-135.286c0-5.747-4.659-10.406-10.407-10.406h-124.878c-5.747 0-10.406 4.659-10.406 10.406v135.285c0 5.747 4.659 10.407 10.406 10.407z" fill="#b1e4f9"/></g><g><path d="m193.561 321.861h124.878c5.747 0 10.406-4.659 10.406-10.406v-135.286c0-5.747-4.659-10.406-10.406-10.406h-124.878c-5.747 0-10.406 4.659-10.406 10.406v135.285c-.001 5.747 4.659 10.407 10.406 10.407z" fill="#b1e4f9"/></g><g><path d="m239.35 388.462h33.301v33.301h-33.301z" fill="#21386b" transform="matrix(0 1 -1 0 661.113 149.113)"/></g><g><path d="m239.35 246.934h33.301v382.959h-33.301z" fill="#30579d" transform="matrix(0 1 -1 0 694.413 182.413)"/></g><g><path d="m418.341 425.926h33.301v24.976h-33.301z" fill="#26457d" transform="matrix(0 1 -1 0 873.405 3.422)"/></g><g><path d="m60.358 425.926h33.301v24.976h-33.301z" fill="#26457d" transform="matrix(0 1 -1 0 515.422 361.405)"/></g><g><path d="m31.22 388.462h33.301v99.902h-33.301z" fill="#4073c8" transform="matrix(-1 0 0 -1 95.74 876.827)"/></g><g><path d="m31.22 388.462h33.301v22.894h-33.301z" fill="#3b66c1" transform="matrix(-1 0 0 -1 95.74 799.819)"/></g><g><path d="m447.48 388.462h33.301v99.902h-33.301z" fill="#4073c8"/></g><g><path d="m447.48 388.462h33.301v22.894h-33.301z" fill="#3b66c1"/></g><g><path d="m183.154 355.161h145.691v33.301h-145.691z" fill="#b1e4f9"/></g><g><path d="m366.309 355.161h145.691v33.301h-145.691z" fill="#b1e4f9"/></g><g><path d="m0 355.161h145.691v33.301h-145.691z" fill="#b1e4f9" transform="matrix(-1 0 0 -1 145.691 743.624)"/></g><g><path d="m10.407 321.861h124.878c5.747 0 10.407-4.659 10.407-10.406v-135.286c0-5.747-4.659-10.406-10.407-10.406h-124.878c-5.748 0-10.407 4.659-10.407 10.406v135.285c0 5.747 4.659 10.407 10.407 10.407z" fill="#b1e4f9"/></g><g><path d="m124.878 355.161h20.813v33.301h-20.813z" fill="#90d8f9"/></g><g><path d="m135.285 165.763h-20.813c5.747 0 10.407 4.659 10.407 10.406v135.285c0 5.747-4.659 10.406-10.407 10.406h20.813c5.747 0 10.407-4.659 10.407-10.406v-135.285c-.001-5.747-4.66-10.406-10.407-10.406z" fill="#90d8f9"/></g><g><path d="m308.033 355.161h20.813v33.301h-20.813z" fill="#90d8f9"/></g><g><path d="m318.439 165.763h-20.813c5.747 0 10.407 4.659 10.407 10.406v135.285c0 5.747-4.659 10.406-10.407 10.406h20.813c5.747 0 10.406-4.659 10.406-10.406v-135.285c.001-5.747-4.659-10.406-10.406-10.406z" fill="#90d8f9"/></g><g><path d="m491.187 355.161h20.813v33.301h-20.813z" fill="#90d8f9"/></g><g><path d="m501.594 165.763h-20.813c5.747 0 10.406 4.659 10.406 10.406v135.285c0 5.747-4.659 10.406-10.406 10.406h20.813c5.747 0 10.407-4.659 10.407-10.406v-135.285c-.001-5.747-4.66-10.406-10.407-10.406z" fill="#90d8f9"/></g></g><g><path d="m282.781 62.739 13.461-13.461c7.396-7.395 7.396-19.386 0-26.781-7.395-7.395-19.386-7.396-26.781.001l-13.461 13.46-13.46-13.46c-7.396-7.397-19.386-7.395-26.781-.001-7.396 7.396-7.396 19.386-.001 26.781l13.461 13.461-13.461 13.461c-7.395 7.395-7.395 19.386.001 26.781 3.698 3.698 8.544 5.546 13.39 5.546s9.693-1.849 13.391-5.547l13.46-13.46 13.461 13.461c3.698 3.699 8.543 5.547 13.39 5.547 4.846 0 9.693-1.849 13.39-5.546 7.396-7.396 7.396-19.386 0-26.781z" fill="#e28086"/></g><g><g><path d="m59.047 108.374c-4.743 0-9.486-1.81-13.105-5.429l-27.801-27.801c-7.238-7.238-7.238-18.973 0-26.21 7.238-7.238 18.973-7.238 26.21 0l14.696 14.696 42.292-42.292c7.238-7.238 18.973-7.238 26.21 0 7.238 7.238 7.238 18.973 0 26.21l-55.397 55.397c-3.618 3.619-8.361 5.429-13.105 5.429z" fill="#95d6a4"/></g></g><g><g><path d="m425.356 108.374c-4.743 0-9.486-1.81-13.105-5.429l-27.801-27.801c-7.238-7.238-7.238-18.973 0-26.21 7.238-7.238 18.973-7.238 26.21 0l14.696 14.696 42.292-42.292c7.238-7.238 18.973-7.238 26.21 0 7.238 7.238 7.238 18.973 0 26.21l-55.397 55.397c-3.618 3.619-8.361 5.429-13.105 5.429z" fill="#95d6a4"/></g></g><g><path d="m81.171 496.091h-66.602c-4.268 0-7.726-3.459-7.726-7.726s3.459-7.726 7.726-7.726h66.602c4.268 0 7.726 3.459 7.726 7.726s-3.458 7.726-7.726 7.726z" fill="#3b66c1"/></g><g><path d="m497.431 496.091h-66.602c-4.268 0-7.726-3.459-7.726-7.726s3.459-7.726 7.726-7.726h66.602c4.268 0 7.726 3.459 7.726 7.726s-3.459 7.726-7.726 7.726z" fill="#3b66c1"/></g><g><path d="m289.301 496.091h-66.602c-4.268 0-7.726-3.459-7.726-7.726s3.459-7.726 7.726-7.726h66.602c4.268 0 7.726 3.459 7.726 7.726s-3.459 7.726-7.726 7.726z" fill="#30579d"/></g></g></svg>