<svg id="Capa_1" enable-background="new 0 0 512 512" height="512" viewBox="0 0 512 512" width="512" xmlns="http://www.w3.org/2000/svg"><g><g><g><circle cx="325.673" cy="474.537" fill="#e4f6ff" r="37.463"/></g><g><path d="m342.556 441.096c2.567 5.075 4.023 10.807 4.023 16.883 0 20.69-16.773 37.463-37.463 37.463-6.076 0-11.809-1.456-16.883-4.023 6.175 12.206 18.826 20.58 33.441 20.58 20.69 0 37.463-16.773 37.463-37.463 0-14.614-8.374-27.265-20.581-33.44z" fill="#b1e4f9"/></g></g><g><g><path d="m207.53 158.263c-12.604 0-22.822 10.218-22.822 22.822v-34.233c0-12.604-10.218-22.822-22.822-22.822-12.604 0-22.822 10.218-22.822 22.822v-34.233c0-12.604-10.218-22.822-22.822-22.822-12.604 0-22.822 10.218-22.822 22.822v34.233c0-12.604-10.218-22.822-22.822-22.822-12.604 0-22.822 10.218-22.822 22.822v125.52c0-12.604-10.218-22.822-22.822-22.822-12.604 0-22.822 10.218-22.822 22.822v83.981c0 19.566 6.287 38.614 17.933 54.337l14.276 19.273c1.314 1.774 2.024 3.924 2.024 6.132v65.604c0 5.69 4.612 10.302 10.302 10.302h161.97c5.69 0 10.302-4.612 10.302-10.302v-68.306c0-.842.103-1.681.308-2.499l8.378-33.511c1.81-7.241 2.726-14.677 2.726-22.14v-194.159c0-12.604-10.217-22.821-22.821-22.821z" fill="#ffddce"/></g><g><path d="m207.53 158.263c-12.604 0-22.822 10.218-22.822 22.822v-34.233c0-12.604-10.218-22.822-22.822-22.822-12.604 0-22.822 10.218-22.822 22.822v-34.233c0-12.235-9.628-22.22-21.721-22.794v7.026c-16.433 17.913-15.98 45.855 1.372 63.208l.233.233c-4.203 2.744-8.16 5.932-11.793 9.565-13.27 13.27-20.765 31.049-21.271 49.483-9.905 9.963-15.358 23.18-15.358 37.235 0 9.547 2.515 18.707 7.233 26.724-.93 4.214-1.407 8.531-1.407 12.859 0 16.113 6.508 31.212 17.511 42.208-1.451 6.239-2.196 12.645-2.196 19.053 0 44.245 34.32 80.625 77.738 83.913 10.377 8.031 23.214 12.495 36.516 12.495 4.471 0 8.827-.499 13.019-1.436v-18.998c0-.842.103-1.681.308-2.499l8.378-33.511c1.81-7.241 2.726-14.677 2.726-22.14v-194.159c-.001-12.604-10.218-22.821-22.822-22.821z" fill="#ffcbbe"/></g></g><g><path d="m304.262 328.345c1.664-4.193 2.588-8.759 2.588-13.545 0-20.3-16.456-36.757-36.757-36.757-3.578 0-7.033.521-10.303 1.474-6.252-4.921-14.134-7.864-22.707-7.864-.586 0-1.167.017-1.746.044-.96-2.81-2.248-5.466-3.819-7.925 10.245-6.58 17.038-18.066 17.038-31.146 0-20.434-16.565-37-37-37-3.279 0-6.456.431-9.483 1.232-2.18-3.871-4.904-7.518-8.199-10.813-19.477-19.477-51.054-19.477-70.531 0-11.966 11.966-16.568 28.499-13.83 43.988-2.638 1.375-5.114 3.169-7.329 5.383-11.686 11.686-11.686 30.632 0 42.318.431.431.887.818 1.337 1.217-2.725 5.134-4.275 10.988-4.275 17.205 0 15.014 9.007 27.917 21.908 33.623-4.207 8.306-6.593 17.69-6.593 27.638 0 33.834 27.427 61.261 61.261 61.261.889 0 1.771-.03 2.651-.067 6.732 7.556 16.532 12.319 27.448 12.319 20.3 0 36.757-16.456 36.757-36.757 0-.141-.009-.281-.011-.422 5.611-.855 10.801-2.984 15.275-6.075 7.03 8.072 17.375 13.181 28.92 13.181 21.178 0 38.347-17.168 38.347-38.347 0-14.909-8.517-27.823-20.947-34.165z" fill="#e4f6ff"/></g><g><path d="m304.262 328.345c1.664-4.193 2.588-8.759 2.588-13.545 0-20.3-16.456-36.757-36.757-36.757-3.578 0-7.033.521-10.303 1.474-6.252-4.921-14.134-7.864-22.707-7.864-.586 0-1.167.017-1.746.044-.96-2.81-2.248-5.466-3.819-7.925 10.245-6.58 17.038-18.066 17.038-31.146 0-20.434-16.565-37-37-37-3.279 0-6.456.431-9.483 1.232-2.18-3.871-4.904-7.518-8.199-10.813-16.323-16.323-41.143-18.958-60.218-7.92l38.401 38.401c-8.052 8.839-12.461 20.2-12.461 32.237 0 12.801 4.985 24.836 14.037 33.888l59.384 59.384c17.515 17.516 40.655 29.171 65.155 32.821l18.891 2.813 3.373 3.373c3.038-5.493 4.773-11.808 4.773-18.53 0-14.911-8.517-27.825-20.947-34.167z" fill="#b1e4f9"/></g><g><g><path d="m255.935 38.977c-8.913 8.913-8.912 23.362 0 32.275l-24.206-24.206c-8.912-8.912-23.362-8.912-32.275 0-8.912 8.912-8.912 23.362 0 32.275l-24.206-24.206c-8.912-8.912-23.362-8.912-32.275 0-8.912 8.912-8.912 23.362 0 32.275l24.206 24.206c-8.912-8.912-23.362-8.912-32.275 0-8.912 8.912-8.912 23.362 0 32.275l88.756 88.756c-8.912-8.912-23.362-8.912-32.275 0-8.912 8.912-8.912 23.362 0 32.275l59.384 59.384c13.835 13.835 31.75 22.859 51.102 25.742l23.723 3.533c2.184.325 4.206 1.344 5.767 2.905l46.389 46.389c4.023 4.023 10.546 4.023 14.569 0l114.53-114.53c4.023-4.023 4.023-10.546 0-14.569l-48.3-48.3c-.596-.596-1.116-1.262-1.549-1.984l-17.772-29.62c-3.84-6.4-8.451-12.305-13.728-17.583l-137.29-137.292c-8.913-8.912-23.363-8.912-32.275 0z" fill="#ffddce"/></g><g><path d="m457 223.47-17.772-29.62c-3.84-6.4-8.451-12.305-13.729-17.583l-15.306-15.306c3.431 17.642 5.276 36.287 5.276 55.576 0 68.731-23.348 129.335-58.869 165.167l21.149 21.149c4.023 4.023 10.546 4.023 14.569 0l114.53-114.53c4.023-4.023 4.023-10.546 0-14.569l-48.3-48.3c-.594-.595-1.115-1.261-1.548-1.984z" fill="#ffcbbe"/></g></g><g><g><circle cx="370.561" cy="282.129" fill="#e4f6ff" r="24.976"/></g><g><path d="m379.579 258.839c1.084 2.798 1.685 5.837 1.685 9.018 0 13.794-11.182 24.976-24.976 24.976-3.181 0-6.22-.601-9.018-1.685 3.617 9.335 12.678 15.957 23.29 15.957 13.794 0 24.976-11.182 24.976-24.976.001-10.612-6.622-19.673-15.957-23.29z" fill="#b1e4f9"/></g></g><g><g><circle cx="95.675" cy="24.976" fill="#e4f6ff" r="24.976"/></g><g><path d="m104.694 1.685c1.084 2.798 1.685 5.837 1.685 9.018 0 13.794-11.182 24.976-24.976 24.976-3.181 0-6.22-.601-9.018-1.685 3.617 9.335 12.678 15.957 23.29 15.957 13.794 0 24.976-11.182 24.976-24.976 0-10.612-6.622-19.672-15.957-23.29z" fill="#b1e4f9"/></g></g><g><g><g><circle cx="339.625" cy="37.463" fill="#e4f6ff" r="37.463"/></g><g><path d="m356.508 4.023c2.567 5.075 4.023 10.807 4.023 16.883 0 20.69-16.773 37.463-37.463 37.463-6.076 0-11.809-1.456-16.883-4.023 6.175 12.206 18.826 20.58 33.441 20.58 20.69 0 37.463-16.773 37.463-37.463 0-14.614-8.374-27.265-20.581-33.44z" fill="#b1e4f9"/></g></g><g><g><circle cx="396.974" cy="37.463" fill="#e4f6ff" r="19.886"/></g><g><path d="m404.155 18.92c.863 2.228 1.342 4.648 1.342 7.181 0 10.983-8.903 19.886-19.886 19.886-2.533 0-4.953-.479-7.181-1.342 2.88 7.433 10.094 12.705 18.544 12.705 10.983 0 19.886-8.903 19.886-19.886 0-8.45-5.273-15.664-12.705-18.544z" fill="#b1e4f9"/></g></g></g><g><path d="m85.707 264.652c4.267 0 7.726-3.459 7.726-7.726l-.013-110.074c0-10.02-6.46-18.525-15.44-21.594v131.669c.001 4.266 3.46 7.725 7.727 7.725z" fill="#ffcbbe"/></g><g><path d="m36.443 329.405 38.923 20.641c19.912 10.56 32.282 31.121 32.282 53.66v29.558c0 4.267 3.459 7.726 7.726 7.726s7.726-3.459 7.726-7.726v-29.558c0-28.274-15.517-54.066-40.495-67.312l-34.815-18.463-.012-45.56c0-10.02-6.46-18.525-15.44-21.594v71.802c-.001 2.861 1.579 5.486 4.105 6.826z" fill="#ffcbbe"/></g><g><g><path d="m255.939 211.28c-1.514 1.504-3.492 2.256-5.47 2.256s-3.956-.752-5.46-2.256l-104.028-104.028c8.52-4.193 19.11-2.74 26.197 4.347l88.76 88.75c3.02 3.019 3.02 7.912.001 10.931z" fill="#ffcbbe"/></g></g><g><g><path d="m288.215 179.004c-1.514 1.504-3.492 2.266-5.47 2.266s-3.956-.762-5.46-2.266l-128.237-128.237c8.52-4.193 19.11-2.74 26.198 4.347l24.095 24.086.062.072 88.812 88.802c3.008 3.019 3.008 7.912 0 10.93z" fill="#ffcbbe"/></g></g><g><g><path d="m320.49 146.729c-1.514 1.504-3.492 2.266-5.47 2.266s-3.956-.762-5.46-2.266l-104.027-104.028c8.52-4.193 19.11-2.74 26.197 4.347l24.209 24.199 64.551 64.551c3.009 3.019 3.009 7.912 0 10.931z" fill="#ffcbbe"/></g></g><g><path d="m256.927 284.545c1.977 0 3.955-.755 5.463-2.263 3.018-3.017 3.018-7.909 0-10.927l-38.758-38.758c-7.086-7.06-17.649-8.482-26.158-4.305l53.99 53.99c1.509 1.508 3.486 2.263 5.463 2.263z" fill="#ffcbbe"/></g><g><path d="m203.984 353.456c-1.919 0-3.839-.732-5.303-2.196-2.032-2.032-4.733-3.151-7.606-3.151-2.874 0-5.575 1.119-7.607 3.151-2.929 2.928-7.678 2.928-10.606 0-2.929-2.93-2.929-7.678 0-10.607 4.865-4.864 11.333-7.544 18.213-7.544s13.348 2.68 18.213 7.544c2.929 2.93 2.929 7.678 0 10.607-1.465 1.464-3.385 2.196-5.304 2.196z" fill="#b1e4f9"/></g><g><path d="m145.279 285.311c-1.919 0-3.839-.732-5.304-2.197-2.929-2.929-2.928-7.678 0-10.606 2.032-2.031 3.151-4.732 3.151-7.606 0-2.873-1.119-5.574-3.151-7.606-2.929-2.929-2.929-7.678 0-10.606 2.929-2.929 7.678-2.929 10.606 0 4.865 4.865 7.544 11.333 7.544 18.213 0 6.881-2.679 13.349-7.544 18.214-1.463 1.461-3.383 2.194-5.302 2.194z" fill="#b1e4f9"/></g></g></svg>