<svg id="Capa_1" enable-background="new 0 0 512 512" height="512" viewBox="0 0 512 512" width="512" xmlns="http://www.w3.org/2000/svg"><g><g><path d="m480.885 395.447h-449.77c-5.69 0-10.302-4.612-10.302-10.302v-333.217c0-5.69 4.612-10.302 10.302-10.302h449.77c5.69 0 10.302 4.612 10.302 10.302v333.218c0 5.689-4.612 10.301-10.302 10.301z" fill="#30579d"/></g><g><path d="m480.885 395.447h-14.674v-353.821h14.674c5.69 0 10.302 4.612 10.302 10.302v333.218c0 5.689-4.612 10.301-10.302 10.301z" fill="#26457d"/></g><g><path d="m193.561 395.447h124.878v72.846h-124.878z" fill="#26457d"/></g><g><path d="m349.763 512h-187.526c-5.69 0-10.302-4.612-10.302-10.302v-23.104c0-5.69 4.612-10.302 10.302-10.302h187.526c5.69 0 10.302 4.612 10.302 10.302v23.104c0 5.69-4.612 10.302-10.302 10.302z" fill="#30579d"/></g><g><path d="m349.763 512h-16.755v-43.707h16.755c5.69 0 10.302 4.612 10.302 10.302v23.104c0 5.689-4.612 10.301-10.302 10.301z" fill="#26457d"/></g><g><path d="m54.114 351.845v-266.616c0-5.69 4.612-10.302 10.302-10.302h383.169c5.69 0 10.302 4.612 10.302 10.302v266.616c0 5.69-4.612 10.302-10.302 10.302h-383.169c-5.69-.001-10.302-4.613-10.302-10.302z" fill="#90d8f9"/></g><g><path d="m401.691 362.146h-291.382v-351.844c0-5.69 4.612-10.302 10.302-10.302h270.779c5.69 0 10.302 4.612 10.302 10.302v351.844z" fill="#e4f6ff"/></g><g><path d="m288.26 284.539h-141.528c-4.267 0-7.726-3.459-7.726-7.726s3.459-7.726 7.726-7.726h141.528c4.267 0 7.726 3.459 7.726 7.726s-3.459 7.726-7.726 7.726z" fill="#b1e4f9"/></g><g><path d="m365.268 284.539h-33.301c-4.267 0-7.726-3.459-7.726-7.726s3.459-7.726 7.726-7.726h33.301c4.267 0 7.726 3.459 7.726 7.726s-3.459 7.726-7.726 7.726z" fill="#b1e4f9"/></g><g fill="#734d9d"><path d="m266.406 25.574h-20.813c-4.267 0-7.726 3.459-7.726 7.726s3.459 7.726 7.726 7.726h2.68v23.494c0 4.267 3.459 7.726 7.726 7.726s7.726-3.459 7.726-7.726v-23.493h2.68c4.267 0 7.726-3.459 7.726-7.726s-3.457-7.727-7.725-7.727z"/><path d="m170.329 93.232c1.217.703 2.545 1.037 3.856 1.037 2.67 0 5.267-1.386 6.698-3.865l1.34-2.321 20.346 11.747c1.217.703 2.545 1.037 3.856 1.037 2.67 0 5.267-1.386 6.698-3.865 2.134-3.696.868-8.421-2.828-10.554l-20.345-11.747 1.34-2.321c2.134-3.696.868-8.421-2.828-10.554-3.696-2.135-8.422-.867-10.554 2.828l-10.406 18.025c-2.135 3.694-.869 8.42 2.827 10.553z"/><path d="m213.124 146.511c-2.133-3.696-6.86-4.962-10.554-2.828l-20.346 11.747-1.34-2.321c-2.134-3.696-6.859-4.962-10.554-2.828-3.696 2.133-4.962 6.859-2.828 10.554l5.202 9.01c0 .001.001.001.001.002s.001.001.001.002l5.202 9.011c1.431 2.479 4.028 3.865 6.698 3.865 1.311 0 2.639-.334 3.856-1.037 3.696-2.133 4.962-6.859 2.828-10.554l-1.34-2.321 20.346-11.747c3.695-2.134 4.962-6.86 2.828-10.555z"/><path d="m266.406 202.485h-2.68v-23.493c0-4.267-3.459-7.726-7.726-7.726s-7.726 3.459-7.726 7.726v23.493h-2.68c-4.267 0-7.726 3.459-7.726 7.726s3.459 7.726 7.726 7.726h20.813c4.267 0 7.726-3.459 7.726-7.726s-3.459-7.726-7.727-7.726z"/><path d="m341.671 150.28c-3.696-2.134-8.421-.868-10.554 2.828l-1.34 2.321-20.346-11.747c-3.695-2.134-8.421-.869-10.554 2.828-2.134 3.695-.868 8.421 2.828 10.554l20.346 11.747-1.34 2.321c-2.134 3.696-.868 8.421 2.828 10.554 1.217.703 2.545 1.037 3.856 1.037 2.67 0 5.267-1.386 6.698-3.865l5.202-9.011c0-.001.001-.001.001-.002s.001-.001.001-.002l5.202-9.01c2.134-3.694.868-8.42-2.828-10.553z"/><path d="m298.876 97.002c1.431 2.479 4.028 3.865 6.698 3.865 1.311 0 2.639-.334 3.856-1.037l20.346-11.747 1.34 2.321c1.431 2.479 4.028 3.865 6.698 3.865 1.311 0 2.639-.334 3.856-1.037 3.696-2.133 4.962-6.859 2.828-10.554l-10.406-18.025c-2.134-3.696-6.859-4.963-10.554-2.828-3.696 2.133-4.962 6.859-2.828 10.554l1.34 2.321-20.346 11.747c-3.695 2.133-4.962 6.859-2.828 10.555z"/><path d="m220.691 76.052c1.431 2.479 4.028 3.865 6.698 3.865 1.311 0 2.639-.334 3.856-1.037 3.695-2.133 4.962-6.859 2.828-10.554l-7.805-13.519c-2.134-3.696-6.86-4.962-10.554-2.828-3.695 2.133-4.962 6.859-2.828 10.554z"/><path d="m198.764 114.03h-15.61c-4.267 0-7.726 3.459-7.726 7.726s3.459 7.726 7.726 7.726h15.61c4.267 0 7.726-3.459 7.726-7.726s-3.459-7.726-7.726-7.726z"/><path d="m231.245 164.633c-3.697-2.135-8.421-.868-10.554 2.828l-7.805 13.518c-2.134 3.695-.868 8.421 2.828 10.554 1.217.703 2.545 1.037 3.856 1.037 2.67 0 5.267-1.386 6.698-3.865l7.805-13.518c2.134-3.695.868-8.42-2.828-10.554z"/><path d="m291.309 167.461c-2.133-3.696-6.86-4.962-10.554-2.828-3.696 2.134-4.962 6.859-2.828 10.554l7.805 13.518c1.431 2.479 4.028 3.865 6.698 3.865 1.311 0 2.639-.334 3.856-1.037 3.696-2.134 4.962-6.859 2.828-10.554z"/><path d="m313.236 114.03c-4.267 0-7.726 3.459-7.726 7.726s3.459 7.726 7.726 7.726h15.61c4.267 0 7.726-3.459 7.726-7.726s-3.459-7.726-7.726-7.726z"/><path d="m280.755 78.88c1.217.703 2.545 1.037 3.856 1.037 2.67 0 5.267-1.386 6.698-3.865l7.805-13.519c2.134-3.696.867-8.421-2.828-10.554-3.695-2.134-8.421-.868-10.554 2.828l-7.805 13.519c-2.134 3.695-.868 8.42 2.828 10.554z"/></g><g><path d="m365.268 251.238h-176.91c-4.267 0-7.726-3.459-7.726-7.726s3.459-7.726 7.726-7.726h176.91c4.267 0 7.726 3.459 7.726 7.726s-3.459 7.726-7.726 7.726z" fill="#b1e4f9"/></g><g><path d="m180.033 317.84h-33.301c-4.267 0-7.726-3.459-7.726-7.726s3.459-7.726 7.726-7.726h33.301c4.267 0 7.726 3.459 7.726 7.726s-3.459 7.726-7.726 7.726z" fill="#b1e4f9"/></g><g><path d="m365.268 317.84h-142.569c-4.267 0-7.726-3.459-7.726-7.726s3.459-7.726 7.726-7.726h142.569c4.267 0 7.726 3.459 7.726 7.726s-3.459 7.726-7.726 7.726z" fill="#b1e4f9"/></g><g><g><circle cx="256" cy="121.756" fill="#ac80dd" r="57.69"/></g><g><path d="m285.26 72.042c5.061 8.58 7.976 18.578 7.976 29.26 0 31.861-25.829 57.69-57.69 57.69-10.683 0-20.68-2.915-29.26-7.976 10.034 17.01 28.536 28.43 49.714 28.43 31.861 0 57.69-25.829 57.69-57.69 0-21.178-11.419-39.68-28.43-49.714z" fill="#9d66d5"/></g></g></g></svg>