<svg id="Capa_1" enable-background="new 0 0 512 512" height="512" viewBox="0 0 512 512" width="512" xmlns="http://www.w3.org/2000/svg"><g><path d="m256 51.225 209.402 169.655c8.741 7.082 21.419 6.419 29.373-1.536 9.213-9.213 8.433-24.372-1.676-32.591l-223.97-182.089c-7.649-6.218-18.61-6.218-26.259 0l-223.969 182.089c-10.109 8.219-10.889 23.378-1.676 32.591 7.955 7.955 20.632 8.618 29.373 1.536z" fill="#e28086"/><g fill="#dd636e"><path d="m220.048 55.867-202.331 163.925c7.977 7.511 20.314 8.028 28.881 1.088l209.402-169.655h-22.85c-4.771 0-9.396 1.639-13.102 4.642z"/><path d="m493.099 186.753-223.97-182.089c-7.649-6.218-18.61-6.218-26.259 0l-1.982 1.612 221.987 180.478c10.109 8.219 10.889 23.378 1.676 32.591-.158.158-.33.295-.492.448l1.343 1.088c8.741 7.082 21.419 6.419 29.373-1.536 9.213-9.214 8.433-24.373-1.676-32.592z"/></g><path d="m64.52 445.398v-239.039l191.48-155.134 191.48 155.134v239.039z" fill="#e4f6ff"/><path d="m256 51.225 144.667 156.633c10.654 11.535 16.571 26.662 16.571 42.364v195.176h30.242v-239.039z" fill="#b1e4f9"/><path d="m464.13 478.699h-416.26v-22.999c0-5.69 4.612-10.302 10.302-10.302h395.657c5.69 0 10.302 4.612 10.302 10.302v22.999z" fill="#26457d"/><path d="m474.641 512h-437.282c-5.69 0-10.302-4.612-10.302-10.302v-12.697c0-5.69 4.612-10.302 10.302-10.302h437.283c5.69 0 10.302 4.612 10.302 10.302v12.697c-.001 5.69-4.613 10.302-10.303 10.302z" fill="#30579d"/><path d="m370.576 397.528h-229.152c-5.69 0-10.302-4.612-10.302-10.302v-114.576c0-68.968 55.91-124.878 124.878-124.878 68.968 0 124.878 55.91 124.878 124.878v114.576c0 5.69-4.612 10.302-10.302 10.302z" fill="#90d8f9"/><g><path d="m170.667 335.414v23.273h35.463v38.842h99.74v-38.842h35.463v-23.273c0-29.379-23.816-53.195-53.195-53.195h-64.277c-29.378 0-53.194 23.816-53.194 53.195z" fill="#95d6a4"/><g fill="#78c2a4"><path d="m283.706 397.528h22.165v-49.924c0-6.121-4.962-11.082-11.082-11.082-6.121 0-11.082 4.962-11.082 11.082v49.924z"/><path d="m288.139 282.219h-22.165c29.379 0 53.195 23.816 53.195 53.195v23.273h22.164v-23.273c0-29.379-23.816-53.195-53.194-53.195z"/></g><g fill="#ffddce"><path d="m305.87 358.687h35.463v38.842h-35.463z"/><path d="m170.667 358.687h35.463v38.842h-35.463z"/><circle cx="256" cy="237.89" r="44.329"/></g><path d="m276.119 198.393c3.083 6.04 4.832 12.873 4.832 20.118 0 24.482-19.847 44.329-44.329 44.329-7.246 0-14.079-1.75-20.119-4.832 7.333 14.366 22.26 24.21 39.497 24.21 24.482 0 44.329-19.847 44.329-44.329 0-17.235-9.844-32.163-24.21-39.496z" fill="#ffcbbe"/></g><path d="m190.677 358.687v-22.164c0-4.267 3.459-7.726 7.726-7.726s7.726 3.459 7.726 7.726v22.164z" fill="#78c2a4"/></g></svg>