<svg id="Capa_1" enable-background="new 0 0 512 512" height="512" viewBox="0 0 512 512" width="512" xmlns="http://www.w3.org/2000/svg"><g><g><g><g><path d="m120.68 57.552c-.019-14.701-12.406-26.496-27.304-25.553-12.864.813-23.28 11.366-23.939 24.239-.288 5.623 1.238 10.871 4.043 15.217 3.334 5.168 5.184 11.153 5.761 17.276l5.062 53.675 21.695-.028 4.93-53.747c.559-6.098 2.389-12.062 5.7-17.213 2.569-4 4.059-8.759 4.052-13.866z" fill="#95d6a4"/></g><g><path d="m10.952 114.818c-12.049-8.422-14.641-25.329-5.348-37.012 8.024-10.088 22.637-12.598 33.574-5.777 4.777 2.979 8.21 7.232 10.172 12.018 2.333 5.69 6.185 10.63 10.877 14.605l41.137 34.848-12.429 17.781-46.91-26.691c-5.322-3.028-11.261-4.938-17.381-5.168-4.75-.178-9.505-1.678-13.692-4.604z" fill="#95d6a4"/></g><g><path d="m88.561 32.779c-10.561 2.781-18.55 12.237-19.124 23.458-.288 5.623 1.238 10.871 4.042 15.217 3.334 5.168 5.184 11.153 5.761 17.276l5.062 53.675 21.695-.028 3.892-42.425-11.372-27.802c-1.226-2.998-1.746-5.983-1.503-8.634.796-8.677-.919-17.355-4.959-25.096-1.04-1.993-2.212-3.872-3.494-5.641z" fill="#78c2a4"/></g><g><path d="m8.998 74.303c8.321-7.073 20.647-8.22 30.181-2.274 4.777 2.979 8.21 7.232 10.172 12.018 2.333 5.69 6.185 10.63 10.877 14.605l41.137 34.848-12.429 17.781-37.029-21.069-16.304-25.228c-1.758-2.72-3.909-4.854-6.224-6.17-7.573-4.309-13.712-10.679-17.752-18.42-1.04-1.992-1.911-4.028-2.629-6.091z" fill="#78c2a4"/></g><g><path d="m74.571 47.544c-6.802-13.032-23.234-17.779-36.016-10.067-11.036 6.659-15.407 20.828-10.05 32.552 2.34 5.121 6.116 9.072 10.609 11.634 5.343 3.045 9.746 7.502 13.084 12.666l29.264 45.28 19.233-10.038-20.432-49.955c-2.318-5.668-3.448-11.803-2.888-17.901.434-4.734-.441-9.643-2.804-14.171z" fill="#95d6a4"/></g><g><path d="m290.179 400.433-92.315-252.754c-11.185-30.624-46.761-44.415-75.665-29.33l-62.24 32.483c-28.903 15.085-37.935 52.156-19.209 78.845l154.555 220.271c15.557 22.172 45.138 29.379 69.15 16.847 24.012-12.532 35.016-40.92 25.724-66.362z" fill="#e7a561"/></g><g><path d="m290.179 400.433-92.315-252.754c-7.539-20.642-26.162-33.618-46.351-35.276 2.192 3.368 4.05 7.037 5.495 10.993l36.117 98.885c2.02 5.529 1.683 11.678-1.068 16.882-11.63 22.002-18.269 47.517-18.269 71.673 0 48.866 10.991 90.142 31.786 121.676 4.629 7.02-.657 16.408-9.059 16.073-.755-.03-1.509-.076-2.262-.138l1.053 1.501c15.557 22.172 45.138 29.379 69.15 16.847 24.011-12.532 35.015-40.92 25.723-66.362z" fill="#e49542"/></g><g><g><path d="m211.454 184.887-27.042 12.98c-1.071.525-2.215.773-3.338.773-2.874 0-5.635-1.617-6.964-4.389-1.854-3.843-.227-8.458 3.616-10.312l28.402-13.64z" fill="#d56617"/></g></g><g><g><path d="m138.427 271.954c-2.787 0-5.477-1.512-6.856-4.153-1.974-3.783-.508-8.45 3.275-10.425l20.981-10.95c3.781-1.975 8.45-.509 10.425 3.275 1.974 3.783.508 8.45-3.275 10.425l-20.981 10.95c-1.142.596-2.364.878-3.569.878z" fill="#d56617"/></g></g><g><g><path d="m110.198 181.071c-2.787 0-5.477-1.512-6.856-4.153-1.974-3.783-.508-8.45 3.275-10.425l20.981-10.95c3.784-1.975 8.449-.509 10.425 3.275 1.974 3.783.508 8.45-3.275 10.425l-20.981 10.95c-1.142.595-2.365.878-3.569.878z" fill="#d56617"/></g></g><g><g><path d="m81.795 239.363-25.064 13.083-8.952-12.764 26.867-14.021c3.781-1.968 8.448-.505 10.425 3.276 1.968 3.782.505 8.448-3.276 10.426z" fill="#d56617"/></g></g><g><g><path d="m145.574 342.897-18.585 9.694-8.952-12.764 20.387-10.631c3.791-1.978 8.458-.515 10.425 3.276 1.979 3.78.516 8.447-3.275 10.425z" fill="#d56617"/></g></g></g><g><g><path d="m404.827 193.034s-25.686-.886-50.486 16.829c-24.8-17.715-50.486-16.829-50.486-16.829-73.452 0-107.173 68.358-107.173 117.801 0 63.57 20.657 126.561 80.032 153.93 12.338 5.687 26.195 8.189 39.541 8.158 12.298-.029 25.453-2.042 34.483-5.511 2.314-.889 4.892-.889 7.206 0 9.03 3.47 22.185 5.482 34.483 5.511 13.346.032 27.204-2.471 39.541-8.158 59.375-27.369 80.032-90.359 80.032-153.929 0-49.444-33.721-117.802-107.173-117.802z" fill="#e28086"/></g><g><path d="m512 310.836c0-18.686-4.82-40.072-14.777-59.45-16.074 63.827-69.533 175.357-247.194 196.766 7.865 6.428 16.728 12.024 26.685 16.614 12.338 5.687 26.195 8.189 39.541 8.158 12.298-.029 25.453-2.042 34.483-5.511 2.314-.889 4.892-.889 7.206 0 9.03 3.47 22.185 5.482 34.483 5.511 13.346.032 27.204-2.471 39.541-8.158 59.375-27.37 80.032-90.36 80.032-153.93z" fill="#dd636e"/></g><g><path d="m354.341 242.39c-4.267 0-7.726-3.459-7.726-7.726v-25.187c0-28.088 10.938-54.495 30.799-74.356l8.664-8.664c3.017-3.017 7.909-3.017 10.927 0s3.018 7.909 0 10.927l-8.664 8.664c-16.943 16.943-26.273 39.469-26.273 63.43v25.187c0 4.266-3.46 7.725-7.727 7.725z" fill="#eaac9d"/></g><g><path d="m352.85 174.847c10.935 20.642 6.382 45.755 3.365 57.174-.925 3.503-4.627 5.464-8.045 4.262-11.142-3.919-34.477-14.258-45.412-34.9s-6.382-45.755-3.365-57.174c.925-3.503 4.627-5.464 8.045-4.262 11.143 3.919 34.477 14.258 45.412 34.9z" fill="#95d6a4"/></g><g><path d="m352.851 174.847c-4.438-8.376-10.918-15.054-17.795-20.296 4.082 7.22 7.269 15.488 8.147 24.484 1.875 19.209-7.186 37.211-14.415 48.202 7.422 4.438 14.556 7.349 19.392 9.049 3.416 1.201 7.112-.764 8.037-4.265 3.015-11.42 7.569-36.532-3.366-57.174z" fill="#78c2a4"/></g><g><path d="m354.341 245.933c-16.687 0-29.743-5.743-38.805-17.071-2.666-3.332-2.125-8.194 1.207-10.86s8.193-2.127 10.86 1.207c6.068 7.585 14.814 11.272 26.738 11.272s20.671-3.687 26.739-11.272c2.665-3.331 7.527-3.872 10.86-1.206 3.332 2.666 3.872 7.528 1.206 10.86-9.062 11.327-22.118 17.07-38.805 17.07z" fill="#dd636e"/></g></g></g><g><g><path d="m277.01 452.07 7.241-4.958c2.413-1.652 2.385-5.221-.053-6.836l-7.273-4.816c-4.997-3.31-9.009-7.906-11.611-13.306l-5.807-12.047c-1.508-3.129-5.973-3.103-7.445.043l-5.724 12.24c-2.521 5.391-6.44 10.007-11.351 13.369l-7.241 4.958c-2.413 1.652-2.385 5.221.053 6.836l7.273 4.817c4.997 3.309 9.009 7.906 11.611 13.306l5.807 12.047c1.508 3.129 5.973 3.103 7.445-.043l5.724-12.24c2.522-5.391 6.441-10.007 11.351-13.37z" fill="#ffe07d"/></g></g><g><g><path d="m499.71 242.819 7.241-4.958c2.413-1.652 2.385-5.221-.053-6.836l-7.273-4.816c-4.997-3.31-9.009-7.906-11.611-13.306l-5.807-12.047c-1.508-3.129-5.973-3.103-7.445.043l-5.724 12.24c-2.521 5.391-6.44 10.007-11.351 13.369l-7.241 4.958c-2.413 1.652-2.385 5.221.053 6.836l7.273 4.817c4.997 3.309 9.009 7.906 11.611 13.306l5.807 12.047c1.508 3.129 5.973 3.103 7.445-.043l5.724-12.24c2.522-5.391 6.441-10.007 11.351-13.37z" fill="#ffe07d"/></g></g><g><g><path d="m115.658 312.273 7.241-4.958c2.413-1.652 2.385-5.221-.053-6.836l-7.273-4.816c-4.997-3.31-9.009-7.906-11.611-13.306l-5.807-12.047c-1.508-3.129-5.973-3.103-7.445.043l-5.724 12.24c-2.521 5.391-6.44 10.007-11.351 13.369l-7.241 4.958c-2.413 1.652-2.385 5.221.053 6.836l7.273 4.817c4.997 3.309 9.009 7.906 11.611 13.306l5.807 12.047c1.508 3.129 5.973 3.103 7.445-.043l5.724-12.24c2.521-5.392 6.441-10.008 11.351-13.37z" fill="#ffe07d"/></g></g><g><g><path d="m277.01 95.126 7.241-4.958c2.413-1.652 2.385-5.221-.053-6.836l-7.273-4.816c-4.997-3.31-9.009-7.906-11.611-13.306l-5.807-12.047c-1.508-3.129-5.973-3.103-7.445.043l-5.724 12.24c-2.521 5.391-6.44 10.007-11.351 13.369l-7.241 4.958c-2.413 1.652-2.385 5.221.053 6.836l7.273 4.817c4.997 3.309 9.009 7.906 11.611 13.306l5.807 12.047c1.508 3.129 5.973 3.103 7.445-.043l5.724-12.24c2.522-5.391 6.441-10.008 11.351-13.37z" fill="#ffe07d"/></g></g></g></svg>